<svg xmlns="http://www.w3.org/2000/svg" width="600" height="400" viewBox="0 0 600 400">
  <defs>
    <linearGradient id="grad1" x1="0%" y1="0%" x2="100%" y2="100%">
      <stop offset="0%" style="stop-color:#3498db;stop-opacity:1" />
      <stop offset="100%" style="stop-color:#2c3e50;stop-opacity:1" />
    </linearGradient>
  </defs>
  
  <!-- Background -->
  <rect width="600" height="400" fill="url(#grad1)"/>
  
  <!-- Shoe silhouettes -->
  <g transform="translate(100, 150)">
    <!-- Sneaker -->
    <path d="M0,80 Q0,60 20,50 L120,30 Q140,25 160,30 L200,40 Q220,45 220,65 L220,80 Q220,90 210,95 L20,95 Q0,90 0,80 Z" fill="rgba(255,255,255,0.3)"/>
    <path d="M10,95 L200,95 Q210,95 210,105 L210,110 Q210,120 200,120 L10,120 Q0,120 0,110 L0,105 Q0,95 10,95 Z" fill="rgba(255,255,255,0.2)"/>
  </g>
  
  <g transform="translate(250, 120)">
    <!-- High heel -->
    <path d="M0,100 Q0,80 20,70 L80,50 Q100,45 120,50 L140,55 Q150,60 150,70 L150,85 Q150,95 140,100 L20,100 Q0,100 0,100 Z" fill="rgba(255,255,255,0.25)"/>
    <path d="M130,100 L140,100 L145,140 Q145,150 135,150 L125,150 Q120,150 120,140 L125,100 Z" fill="rgba(255,255,255,0.25)"/>
    <path d="M10,100 L130,100 Q140,100 140,110 L140,115 Q140,125 130,125 L10,125 Q0,125 0,115 L0,110 Q0,100 10,100 Z" fill="rgba(255,255,255,0.2)"/>
  </g>
  
  <g transform="translate(400, 180)">
    <!-- Sandal -->
    <path d="M0,50 Q0,40 10,40 L120,40 Q130,40 130,50 L130,55 Q130,65 120,65 L10,65 Q0,65 0,55 L0,50 Z" fill="rgba(255,255,255,0.3)"/>
    <ellipse cx="30" cy="30" rx="8" ry="15" fill="rgba(255,255,255,0.25)"/>
    <ellipse cx="100" cy="30" rx="8" ry="15" fill="rgba(255,255,255,0.25)"/>
  </g>
  
  <!-- Decorative elements -->
  <circle cx="450" cy="80" r="3" fill="rgba(255,255,255,0.4)"/>
  <circle cx="480" cy="60" r="2" fill="rgba(255,255,255,0.3)"/>
  <circle cx="520" cy="90" r="4" fill="rgba(255,255,255,0.2)"/>
  
  <circle cx="80" cy="50" r="2" fill="rgba(255,255,255,0.3)"/>
  <circle cx="50" cy="30" r="3" fill="rgba(255,255,255,0.4)"/>
  <circle cx="120" cy="40" r="2" fill="rgba(255,255,255,0.2)"/>
</svg>